<?xml version="1.0" encoding="utf-8"?>
<!-- Generator: Adobe Illustrator 24.2.3, SVG Export Plug-In . SVG Version: 6.00 Build 0)  -->
<svg version="1.1" id="Layer_1" xmlns="http://www.w3.org/2000/svg" xmlns:xlink="http://www.w3.org/1999/xlink" x="0px" y="0px"
	 viewBox="0 0 512 512" style="enable-background:new 0 0 512 512;" xml:space="preserve">
<style type="text/css">
	.st0{fill:#00A1DB;}
</style>
<path id="outline" class="st0" d="M370.9,102.1c-0.1-2.3-1.2-4.4-2.9-5.8c-26.9-22.3-59.8-36-94.5-39.4c-5.8-0.6-11.6-0.9-17.4-0.9
	c0,0-0.1,0-0.1,0s-0.1,0-0.1,0c-5.8,0-11.7,0.3-17.4,0.9c-52.8,5.2-100.5,34-129.5,78.5l-0.1,0.1l0,0
	C66.5,199.9,71.1,284.5,120.3,344c1.4,1.7,3.5,2.8,5.8,2.9c0.1,0,0.3,0,0.4,0c2.1,0,4.2-0.8,5.7-2.3l236.5-236.5
	C370.2,106.5,371,104.3,370.9,102.1z M230.1,224h-49.1c0.7-20.4,4-40.7,9.9-60.2c19,2.5,38,3.8,57.1,4.2v38.1L230.1,224z M96.2,224
	c1.3-26.5,9.1-52.2,22.9-74.9c18.3,5.2,37,9.3,55.8,12.3c-5.9,20.3-9.3,41.4-9.9,62.5H96.2z M243,72.5c1.7-0.1,3.3-0.3,5-0.3v79.7
	c-17.3-0.3-34.7-1.5-51.9-3.6C206.7,120.3,222.7,94.5,243,72.5z M214.1,240l-30.1,30.1c-1.6-10-2.6-20-3-30.1H214.1z M264,167.9
	c7.7-0.1,15.3-0.4,23-0.9l-23,23V167.9z M304.5,149.6c-13.4,1.3-27,2.1-40.5,2.3V72.2c1.7,0.1,3.3,0.2,5,0.3
	c18.6,20.1,33.4,43.3,44,68.5L304.5,149.6z M218.7,76.4c-16.6,21-29.7,44.5-38.8,69.7c-17.3-2.7-34.4-6.3-51.3-10.9
	C150.9,105.7,182.8,84.9,218.7,76.4z M127.2,326.9c-18.6-25.3-29.4-55.5-31-86.9h68.7c0.5,14.7,2.2,29.4,5.3,43.9L127.2,326.9z
	 M325.2,128.9c-8.4-18.8-19.1-36.4-31.9-52.5c20.8,5,40.4,14.1,57.6,26.8L325.2,128.9z M403.2,135.4c-3.5-5.4-7.3-10.5-11.4-15.5
	c-2.8-3.4-7.9-3.9-11.3-1.1c-0.2,0.2-0.4,0.3-0.6,0.5L143.4,355.9c-3.1,3.1-3.1,8.2,0,11.3c0.2,0.2,0.4,0.3,0.6,0.5
	c26.9,22.3,59.8,36,94.5,39.4c11.2,1.1,22.4,1.2,33.6,0.1V448c0,4.4,3.6,8,8,8c2.2,0,4.4-0.9,5.9-2.6l71.7-77.7
	C435,320.9,455.2,214.7,403.2,135.4L403.2,135.4z M347.7,363.1c-0.5,0.3-0.9,0.7-1.3,1.1L288,427.5v-29.3c0-4.4-3.6-8-8-8
	c-0.4,0-0.8,0-1.1,0.1c-2.4,0.3-4.7,0.6-6.9,0.8c-10.6,1.1-21.3,1.1-32,0c-28.6-2.8-55.8-13.3-78.9-30.4l223.7-223.7
	c1.7,2.3,3.4,4.7,5,7.1C437.2,216.6,418.6,313.5,347.7,363.1z M256,296c8.8,0,16,7.2,16,16s-7.2,16-16,16c-8.8,0-16-7.2-16-16
	S247.2,296,256,296z M304,296c8.8,0,16,7.2,16,16s-7.2,16-16,16s-16-7.2-16-16S295.2,296,304,296z M352,296c8.8,0,16,7.2,16,16
	s-7.2,16-16,16s-16-7.2-16-16S343.2,296,352,296z M80,340.1c-4.4-0.5-8.4,2.6-8.9,6.9l-0.7,5.4c-58.9-83-49.1-196.5,23.2-268.2
	c3.2-3.1,3.2-8.2,0.1-11.3s-8.2-3.2-11.3-0.1c0,0,0,0,0,0c-77.7,77-88.5,198.8-25.4,288.2l-6.8-1c-4.4-0.6-8.4,2.4-9.1,6.7
	s2.4,8.4,6.7,9.1l27,4c4.4,0.6,8.4-2.4,9.1-6.7c0-0.1,0-0.1,0-0.2l3-24C87.5,344.6,84.4,340.6,80,340.1C80,340.1,80,340.1,80,340.1z
	 M454.5,96c4.4,0,8-3.6,8-8s-3.6-8-8-8h-24c-4.4,0-8,3.6-8,8v24c0,4.4,3.6,8,8,8s8-3.6,8-8v-2.6c60.2,82.5,51.6,196.5-20.2,269
	c-3.1,3.1-3.1,8.2,0.1,11.3c3.1,3.1,8.2,3.1,11.3-0.1c78.7-79.5,86.7-204.8,18.8-293.6H454.5z"/>
</svg>
